<svg width="0" height="0" class="hidden">
    <symbol xmlns="http://www.w3.org/2000/svg" viewBox="0 0 24 24" id="share-alt">
        <path d="M17.625 15.5625C16.957 15.5625 16.3406 15.7969 15.8578 16.1883L11.0016 12.675C11.0829 12.2287 11.0829 11.7713 11.0016 11.325L15.8578 7.81172C16.3406 8.20312 16.957 8.4375 17.625 8.4375C19.1766 8.4375 20.4375 7.17656 20.4375 5.625C20.4375 4.07344 19.1766 2.8125 17.625 2.8125C16.0734 2.8125 14.8125 4.07344 14.8125 5.625C14.8125 5.89687 14.85 6.15703 14.9227 6.40547L10.3102 9.74531C9.62578 8.83828 8.53828 8.25 7.3125 8.25C5.24062 8.25 3.5625 9.92812 3.5625 12C3.5625 14.0719 5.24062 15.75 7.3125 15.75C8.53828 15.75 9.62578 15.1617 10.3102 14.2547L14.9227 17.5945C14.85 17.843 14.8125 18.1055 14.8125 18.375C14.8125 19.9266 16.0734 21.1875 17.625 21.1875C19.1766 21.1875 20.4375 19.9266 20.4375 18.375C20.4375 16.8234 19.1766 15.5625 17.625 15.5625ZM17.625 4.40625C18.2977 4.40625 18.8438 4.95234 18.8438 5.625C18.8438 6.29766 18.2977 6.84375 17.625 6.84375C16.9523 6.84375 16.4062 6.29766 16.4062 5.625C16.4062 4.95234 16.9523 4.40625 17.625 4.40625ZM7.3125 14.0625C6.17578 14.0625 5.25 13.1367 5.25 12C5.25 10.8633 6.17578 9.9375 7.3125 9.9375C8.44922 9.9375 9.375 10.8633 9.375 12C9.375 13.1367 8.44922 14.0625 7.3125 14.0625ZM17.625 19.5938C16.9523 19.5938 16.4062 19.0477 16.4062 18.375C16.4062 17.7023 16.9523 17.1562 17.625 17.1562C18.2977 17.1562 18.8438 17.7023 18.8438 18.375C18.8438 19.0477 18.2977 19.5938 17.625 19.5938Z"></path>
    </symbol>
    <symbol xmlns="http://www.w3.org/2000/svg" viewBox="0 0 22 22" id="comment">
        <path d="M9.87519 11C9.87519 11.2984 9.99372 11.5845 10.2047 11.7955C10.4157 12.0065 10.7018 12.125 11.0002 12.125C11.2986 12.125 11.5847 12.0065 11.7957 11.7955C12.0067 11.5845 12.1252 11.2984 12.1252 11C12.1252 10.7016 12.0067 10.4155 11.7957 10.2045C11.5847 9.99353 11.2986 9.875 11.0002 9.875C10.7018 9.875 10.4157 9.99353 10.2047 10.2045C9.99372 10.4155 9.87519 10.7016 9.87519 11ZM14.5627 11C14.5627 11.2984 14.6812 11.5845 14.8922 11.7955C15.1032 12.0065 15.3893 12.125 15.6877 12.125C15.9861 12.125 16.2722 12.0065 16.4832 11.7955C16.6942 11.5845 16.8127 11.2984 16.8127 11C16.8127 10.7016 16.6942 10.4155 16.4832 10.2045C16.2722 9.99353 15.9861 9.875 15.6877 9.875C15.3893 9.875 15.1032 9.99353 14.8922 10.2045C14.6812 10.4155 14.5627 10.7016 14.5627 11ZM5.18769 11C5.18769 11.2984 5.30622 11.5845 5.5172 11.7955C5.72818 12.0065 6.01433 12.125 6.31269 12.125C6.61106 12.125 6.89721 12.0065 7.10819 11.7955C7.31917 11.5845 7.43769 11.2984 7.43769 11C7.43769 10.7016 7.31917 10.4155 7.10819 10.2045C6.89721 9.99353 6.61106 9.875 6.31269 9.875C6.01433 9.875 5.72818 9.99353 5.5172 10.2045C5.30622 10.4155 5.18769 10.7016 5.18769 11ZM20.6846 6.93125C20.1549 5.67266 19.3955 4.54297 18.4275 3.57266C17.4663 2.60796 16.3253 1.84114 15.0689 1.31563C13.7799 0.774219 12.4111 0.5 11.0002 0.5H10.9533C9.53301 0.507031 8.15723 0.788281 6.86348 1.34141C5.61791 1.87232 4.48753 2.64049 3.53535 3.60312C2.57676 4.57109 1.82441 5.69609 1.3041 6.95C0.765038 8.24844 0.493163 9.62891 0.500194 11.0492C0.508147 12.6769 0.893222 14.2806 1.62519 15.7344V19.2969C1.62519 19.5828 1.73878 19.857 1.94097 20.0592C2.14316 20.2614 2.41738 20.375 2.70332 20.375H6.26816C7.72198 21.107 9.32565 21.492 10.9533 21.5H11.0025C12.4064 21.5 13.7682 21.2281 15.0502 20.6961C16.3002 20.1768 17.437 19.419 18.3971 18.4648C19.365 17.5062 20.1268 16.3859 20.6588 15.1367C21.2119 13.843 21.4932 12.4672 21.5002 11.0469C21.5072 9.61953 21.2307 8.23437 20.6846 6.93125ZM17.1432 17.1969C15.5002 18.8234 13.3205 19.7188 11.0002 19.7188H10.9604C9.54707 19.7117 8.14316 19.3602 6.90332 18.6992L6.70644 18.5938H3.40644V15.2938L3.30098 15.0969C2.64004 13.857 2.28848 12.4531 2.28144 11.0398C2.27207 8.70313 3.16504 6.50937 4.80332 4.85703C6.43926 3.20469 8.62598 2.29063 10.9627 2.28125H11.0025C12.1744 2.28125 13.3111 2.50859 14.3822 2.95859C15.4275 3.39687 16.365 4.02734 17.1713 4.83359C17.9752 5.6375 18.608 6.57734 19.0463 7.62266C19.501 8.70547 19.7283 9.85391 19.7236 11.0398C19.7096 13.3742 18.7932 15.5609 17.1432 17.1969Z"></path>
    </symbol>
    <symbol xmlns="http://www.w3.org/2000/svg" viewBox="0 0 24 24" id="like">
        <path d="M20.7633 12.5094C21.157 11.9891 21.375 11.3516 21.375 10.6883C21.375 9.63596 20.7867 8.63987 19.8398 8.0844C19.5961 7.94142 19.3185 7.86617 19.0359 7.86643H13.4156L13.5563 4.98596C13.5891 4.28987 13.343 3.62893 12.8648 3.12502C12.6302 2.87665 12.3471 2.67904 12.0331 2.5444C11.7191 2.40975 11.3807 2.34094 11.0391 2.34221C9.82031 2.34221 8.74219 3.16252 8.41875 4.33674L6.40547 11.6258H3.375C2.96016 11.6258 2.625 11.961 2.625 12.3758V20.9071C2.625 21.3219 2.96016 21.6571 3.375 21.6571H17.468C17.6836 21.6571 17.8945 21.6149 18.0891 21.5305C19.2047 21.0547 19.9242 19.9649 19.9242 18.7555C19.9242 18.4602 19.882 18.1696 19.7977 17.8883C20.1914 17.368 20.4094 16.7305 20.4094 16.0672C20.4094 15.7719 20.3672 15.4813 20.2828 15.2C20.6766 14.6797 20.8945 14.0422 20.8945 13.3789C20.8898 13.0836 20.8477 12.7906 20.7633 12.5094ZM4.3125 19.9696V13.3133H6.21094V19.9696H4.3125ZM19.2281 11.6961L18.7148 12.1414L19.0406 12.7367C19.148 12.9328 19.2036 13.153 19.2023 13.3766C19.2023 13.7633 19.0336 14.1313 18.743 14.3844L18.2297 14.8297L18.5555 15.425C18.6628 15.6211 18.7185 15.8413 18.7172 16.0649C18.7172 16.4516 18.5484 16.8196 18.2578 17.0727L17.7445 17.518L18.0703 18.1133C18.1776 18.3094 18.2333 18.5296 18.232 18.7531C18.232 19.2781 17.9227 19.7516 17.4445 19.9672H7.71094V13.2383L10.043 4.78909C10.1031 4.57252 10.2322 4.38147 10.4107 4.24486C10.5891 4.10825 10.8073 4.03354 11.032 4.03205C11.2102 4.03205 11.3859 4.08362 11.5266 4.18909C11.7586 4.36252 11.8828 4.62502 11.8687 4.90393L11.6437 9.55393H19.0125C19.4297 9.8094 19.6875 10.2406 19.6875 10.6883C19.6875 11.075 19.5188 11.4406 19.2281 11.6961Z"></path>
    </symbol>
    <symbol xmlns="http://www.w3.org/2000/svg" viewBox="0 0 24 24" id="save">
        <path d="M20.9367 6.87422L17.1258 3.06328C16.95 2.8875 16.7344 2.75859 16.5 2.68828V2.625H3.375C2.96016 2.625 2.625 2.96016 2.625 3.375V20.625C2.625 21.0398 2.96016 21.375 3.375 21.375H20.625C21.0398 21.375 21.375 21.0398 21.375 20.625V7.93359C21.375 7.53516 21.218 7.15547 20.9367 6.87422ZM9 4.3125H15V6.75H9V4.3125ZM19.6875 19.6875H4.3125V4.3125H7.5V7.5C7.5 7.91484 7.83516 8.25 8.25 8.25H15.75C16.1648 8.25 16.5 7.91484 16.5 7.5V4.82344L19.6875 8.01094V19.6875ZM12 10.3594C10.1367 10.3594 8.625 11.8711 8.625 13.7344C8.625 15.5977 10.1367 17.1094 12 17.1094C13.8633 17.1094 15.375 15.5977 15.375 13.7344C15.375 11.8711 13.8633 10.3594 12 10.3594ZM12 15.6094C10.9641 15.6094 10.125 14.7703 10.125 13.7344C10.125 12.6984 10.9641 11.8594 12 11.8594C13.0359 11.8594 13.875 12.6984 13.875 13.7344C13.875 14.7703 13.0359 15.6094 12 15.6094Z"></path>
    </symbol>
    <symbol xmlns="http://www.w3.org/2000/svg" viewBox="0 0 22 22" id="exit">
        <path d="M15.5371 1.92734C15.5084 1.91289 15.4765 1.90604 15.4444 1.90747C15.4123 1.90889 15.3811 1.91854 15.3538 1.93548C15.3265 1.95242 15.3041 1.97608 15.2885 2.00421C15.273 2.03233 15.265 2.06397 15.2652 2.09609V3.60078C15.2652 3.72969 15.3332 3.84922 15.441 3.91953C15.9695 4.2522 16.4586 4.64376 16.8988 5.08672C17.6652 5.85547 18.2676 6.74844 18.6871 7.74219C19.121 8.77093 19.3434 9.87648 19.341 10.993C19.341 12.1203 19.1207 13.2148 18.6871 14.2438C18.268 15.2361 17.6608 16.1378 16.8988 16.8992C16.1394 17.6631 15.2382 18.2713 14.2457 18.6898C13.2191 19.1258 12.1246 19.3461 10.9996 19.3461C9.8746 19.3461 8.78007 19.1258 7.7535 18.6898C6.76102 18.2713 5.85978 17.6631 5.10038 16.8992C4.33843 16.1378 3.73115 15.2361 3.3121 14.2438C2.87823 13.215 2.65584 12.1095 2.65819 10.993C2.65819 9.86563 2.8785 8.77109 3.3121 7.74219C3.73163 6.74844 4.33397 5.85547 5.10038 5.08672C5.54569 4.64141 6.03319 4.25234 6.55819 3.91953C6.66835 3.85156 6.73397 3.72969 6.73397 3.60078V2.09375C6.73397 1.95312 6.58632 1.86406 6.4621 1.925C3.18319 3.575 0.921473 6.95234 0.874598 10.8664C0.808973 16.4633 5.38632 21.1133 10.9808 21.125C16.5824 21.1367 21.1246 16.5945 21.1246 10.9906C21.1246 7.025 18.8512 3.59141 15.5371 1.92734V1.92734ZM10.2496 12.125H11.7496C11.8527 12.125 11.9371 12.0406 11.9371 11.9375V1.0625C11.9371 0.959375 11.8527 0.875 11.7496 0.875H10.2496C10.1465 0.875 10.0621 0.959375 10.0621 1.0625V11.9375C10.0621 12.0406 10.1465 12.125 10.2496 12.125Z"></path>
    </symbol>
    <symbol xmlns="http://www.w3.org/2000/svg" viewBox="0 0 11 14" id="fire">
        <path d="M10.5328 6.33147C10.2295 5.64875 9.78851 5.03597 9.2375 4.53147L8.78281 4.11428C8.76737 4.10051 8.74879 4.09073 8.72869 4.08581C8.7086 4.08089 8.6876 4.08098 8.66754 4.08608C8.64749 4.09117 8.62899 4.1011 8.61367 4.11501C8.59835 4.12892 8.58668 4.14638 8.57969 4.16585L8.37656 4.74866C8.25 5.11429 8.01719 5.48772 7.6875 5.85491C7.66563 5.87835 7.64063 5.8846 7.62344 5.88616C7.60625 5.88772 7.57969 5.8846 7.55625 5.86272C7.53437 5.84397 7.52344 5.81585 7.525 5.78772C7.58281 4.8471 7.30156 3.78616 6.68594 2.63147C6.17656 1.6721 5.46875 0.92366 4.58437 0.401785L3.93906 0.0220976C3.85469 -0.0279024 3.74688 0.0377225 3.75156 0.13616L3.78594 0.88616C3.80937 1.39866 3.75 1.85179 3.60938 2.22835C3.4375 2.68929 3.19063 3.11741 2.875 3.50179C2.65535 3.76891 2.40639 4.01053 2.13281 4.2221C1.47391 4.72861 0.938146 5.37762 0.565625 6.12054C0.194022 6.86993 0.000453376 7.695 0 8.53147C0 9.26897 0.145312 9.98303 0.432812 10.6565C0.710416 11.3049 1.11103 11.8933 1.6125 12.3893C2.11875 12.8893 2.70625 13.283 3.36094 13.5565C4.03906 13.8408 4.75781 13.9846 5.5 13.9846C6.24219 13.9846 6.96094 13.8408 7.63906 13.558C8.29214 13.2862 8.88601 12.8898 9.3875 12.3908C9.89375 11.8908 10.2906 11.3065 10.5672 10.658C10.8543 9.98644 11.0015 9.26341 11 8.53303C11 7.77053 10.8437 7.02991 10.5328 6.33147V6.33147ZM8.64062 11.633C7.80156 12.4643 6.6875 12.9205 5.5 12.9205C4.3125 12.9205 3.19844 12.4643 2.35938 11.633C1.52344 10.8033 1.0625 9.70335 1.0625 8.53303C1.0625 7.85335 1.21563 7.20179 1.51719 6.59554C1.81094 6.00335 2.24844 5.47366 2.77969 5.06585C3.1185 4.80677 3.4258 4.50891 3.69531 4.17835C4.08594 3.70179 4.39219 3.17053 4.60469 2.60022C4.69185 2.36497 4.75519 2.12156 4.79375 1.87366C5.17031 2.22053 5.48594 2.63928 5.75 3.12991C6.27188 4.10803 6.5125 4.97835 6.46562 5.71897C6.45443 5.8934 6.48291 6.06811 6.54895 6.22994C6.61498 6.39178 6.71684 6.53654 6.84688 6.65335C6.95956 6.75514 7.09135 6.83352 7.23458 6.88395C7.37782 6.93438 7.52965 6.95584 7.68125 6.9471C7.98906 6.93147 8.27187 6.79554 8.47812 6.56585C8.68594 6.33304 8.86562 6.09554 9.01562 5.85335C9.23438 6.13304 9.41719 6.43772 9.5625 6.76585C9.81094 7.32522 9.9375 7.92053 9.9375 8.53303C9.9375 9.70335 9.47656 10.8049 8.64062 11.633Z"></path>
    </symbol>
    <symbol xmlns="http://www.w3.org/2000/svg" viewBox="0 0 14 12" id="photo">
        <path d="M13.5 0.5H0.5C0.223437 0.5 0 0.723437 0 1V11C0 11.2766 0.223437 11.5 0.5 11.5H13.5C13.7766 11.5 14 11.2766 14 11V1C14 0.723437 13.7766 0.5 13.5 0.5ZM12.875 10.375H1.125V9.75156L3.28906 7.18437L5.63438 9.96562L9.28281 5.64062L12.875 9.9V10.375ZM12.875 8.34688L9.37813 4.2C9.32812 4.14062 9.2375 4.14062 9.1875 4.2L5.63438 8.4125L3.38438 5.74531C3.33438 5.68594 3.24375 5.68594 3.19375 5.74531L1.125 8.19844V1.625H12.875V8.34688ZM3.75 5.125C3.93057 5.125 4.10937 5.08943 4.27619 5.02033C4.44301 4.95123 4.59459 4.84995 4.72227 4.72227C4.84995 4.59459 4.95123 4.44301 5.02033 4.27619C5.08943 4.10937 5.125 3.93057 5.125 3.75C5.125 3.56943 5.08943 3.39063 5.02033 3.22381C4.95123 3.05699 4.84995 2.90541 4.72227 2.77773C4.59459 2.65005 4.44301 2.54877 4.27619 2.47967C4.10937 2.41057 3.93057 2.375 3.75 2.375C3.38533 2.375 3.03559 2.51987 2.77773 2.77773C2.51987 3.03559 2.375 3.38533 2.375 3.75C2.375 4.11467 2.51987 4.46441 2.77773 4.72227C3.03559 4.98013 3.38533 5.125 3.75 5.125ZM3.75 3.3125C3.99219 3.3125 4.1875 3.50781 4.1875 3.75C4.1875 3.99219 3.99219 4.1875 3.75 4.1875C3.50781 4.1875 3.3125 3.99219 3.3125 3.75C3.3125 3.50781 3.50781 3.3125 3.75 3.3125Z"></path>
    </symbol>
    <symbol xmlns="http://www.w3.org/2000/svg" viewBox="0 0 14 12" id="video">
        <path d="M13.25 2.72344L11.25 3.875V1.5C11.25 0.948438 10.8016 0.5 10.25 0.5H1C0.448438 0.5 0 0.948438 0 1.5V10.5C0 11.0516 0.448438 11.5 1 11.5H10.25C10.8016 11.5 11.25 11.0516 11.25 10.5V8.125L13.25 9.27656C13.5828 9.46875 14 9.22812 14 8.84531V3.15625C14 2.77187 13.5828 2.53125 13.25 2.72344ZM10.125 10.375H1.125V1.625H10.125V10.375ZM12.875 7.76562L11.25 6.83125V5.17031L12.875 4.23438V7.76562ZM2.25 3.625H4C4.06875 3.625 4.125 3.56875 4.125 3.5V2.75C4.125 2.68125 4.06875 2.625 4 2.625H2.25C2.18125 2.625 2.125 2.68125 2.125 2.75V3.5C2.125 3.56875 2.18125 3.625 2.25 3.625Z"></path>
    </symbol>
    <symbol xmlns="http://www.w3.org/2000/svg" viewBox="0 0 348.882 348.882" id="edit">
        <path d="M333.988 11.758l-.42-.383A43.363 43.363 0 00304.258 0a43.579 43.579 0 00-32.104 14.153L116.803 184.231a14.993 14.993 0 00-3.154 5.37l-18.267 54.762c-2.112 6.331-1.052 13.333 2.835 18.729 3.918 5.438 10.23 8.685 16.886 8.685h.001c2.879 0 5.693-.592 8.362-1.76l52.89-23.138a14.985 14.985 0 005.063-3.626L336.771 73.176c16.166-17.697 14.919-45.247-2.783-61.418zM130.381 234.247l10.719-32.134.904-.99 20.316 18.556-.904.99-31.035 13.578zm184.24-181.304L182.553 197.53l-20.316-18.556L294.305 34.386c2.583-2.828 6.118-4.386 9.954-4.386 3.365 0 6.588 1.252 9.082 3.53l.419.383c5.484 5.009 5.87 13.546.861 19.03z"></path>
        <path d="M303.85 138.388c-8.284 0-15 6.716-15 15v127.347c0 21.034-17.113 38.147-38.147 38.147H68.904c-21.035 0-38.147-17.113-38.147-38.147V100.413c0-21.034 17.113-38.147 38.147-38.147h131.587c8.284 0 15-6.716 15-15s-6.716-15-15-15H68.904C31.327 32.266.757 62.837.757 100.413v180.321c0 37.576 30.571 68.147 68.147 68.147h181.798c37.576 0 68.147-30.571 68.147-68.147V153.388c.001-8.284-6.715-15-14.999-15z"></path>
      </symbol>
</svg>