<svg width="51" height="13" viewBox="0 0 51 13" fill="none" xmlns="http://www.w3.org/2000/svg">
<path d="M0.992188 0.726562H5.375C6.5 0.726562 7.41406 1.07552 8.11719 1.77344C8.82031 2.46615 9.17188 3.375 9.17188 4.5C9.17188 5.61979 8.8099 6.52865 8.08594 7.22656C7.36719 7.92448 6.4349 8.27344 5.28906 8.27344H3.00781V12H0.992188V0.726562ZM3.00781 2.375V6.64844H4.83594C5.5599 6.64844 6.1224 6.46094 6.52344 6.08594C6.92448 5.71094 7.125 5.18229 7.125 4.5C7.125 3.82292 6.92448 3.29948 6.52344 2.92969C6.1276 2.5599 5.56771 2.375 4.84375 2.375H3.00781Z" fill="white"/>
<path d="M10.5 12V3.71875H12.4453V12H10.5ZM12.2344 2.32812C12.026 2.53125 11.7708 2.63281 11.4688 2.63281C11.1667 2.63281 10.9115 2.53125 10.7031 2.32812C10.4948 2.11979 10.3906 1.86979 10.3906 1.57812C10.3906 1.28125 10.4948 1.03125 10.7031 0.828125C10.9115 0.619792 11.1667 0.515625 11.4688 0.515625C11.7708 0.515625 12.026 0.619792 12.2344 0.828125C12.4479 1.03125 12.5547 1.28125 12.5547 1.57812C12.5547 1.86979 12.4479 2.11979 12.2344 2.32812Z" fill="white"/>
<path d="M16.1016 7.17188L19.2188 3.71875H21.4609L18.1484 7.28125L21.6016 12H19.3516L16.7344 8.46094L16.0781 9.125V12H14.1328V0.726562H16.0781V7.17188H16.1016Z" fill="white"/>
<path d="M25.3672 10.6641C25.9245 10.6641 26.3932 10.5 26.7734 10.1719C27.1589 9.83854 27.3516 9.42448 27.3516 8.92969V8.29688L25.4375 8.41406C24.9688 8.44531 24.6042 8.5625 24.3438 8.76562C24.0885 8.96354 23.9609 9.22656 23.9609 9.55469C23.9609 9.89323 24.0885 10.1641 24.3438 10.3672C24.6042 10.5651 24.9453 10.6641 25.3672 10.6641ZM24.7812 12.1328C23.974 12.1328 23.3099 11.901 22.7891 11.4375C22.2734 10.974 22.0156 10.3724 22.0156 9.63281C22.0156 8.89844 22.2865 8.31771 22.8281 7.89062C23.375 7.46354 24.1536 7.21875 25.1641 7.15625L27.3516 7.03125V6.4375C27.3516 6.00521 27.2135 5.66927 26.9375 5.42969C26.6667 5.1901 26.2891 5.07031 25.8047 5.07031C25.3516 5.07031 24.9818 5.17188 24.6953 5.375C24.4089 5.57812 24.2344 5.85417 24.1719 6.20312H22.3672C22.4089 5.41667 22.7448 4.77865 23.375 4.28906C24.0104 3.79427 24.8464 3.54688 25.8828 3.54688C26.9089 3.54688 27.7292 3.79688 28.3438 4.29688C28.9635 4.79688 29.2734 5.46354 29.2734 6.29688V12H27.3984V10.6797H27.3594C27.125 11.1224 26.7708 11.4766 26.2969 11.7422C25.8229 12.0026 25.3177 12.1328 24.7812 12.1328Z" fill="white"/>
<path d="M42.0469 3.71875L39.8047 12H37.7578L36.125 5.94531H36.0859L34.4609 12H32.4297L30.1875 3.71875H32.1406L33.5391 10.0781H33.5781L35.1953 3.71875H37.0625L38.6797 10.0781H38.7266L40.125 3.71875H42.0469Z" fill="white"/>
<path d="M50.3594 3.71875V12H48.4844V10.5625H48.4453C47.987 11.6198 47.1432 12.1484 45.9141 12.1484C45.013 12.1484 44.2969 11.875 43.7656 11.3281C43.2396 10.776 42.9766 10.0234 42.9766 9.07031V3.71875H44.9219V8.67969C44.9219 9.27344 45.0625 9.72656 45.3438 10.0391C45.6302 10.3516 46.0469 10.5078 46.5938 10.5078C47.151 10.5078 47.5938 10.3255 47.9219 9.96094C48.25 9.59635 48.4141 9.11198 48.4141 8.50781V3.71875H50.3594Z" fill="white"/>
</svg>
